<?xml version="1.0" encoding="utf-8"?>
<!-- Generator: Adobe Illustrator 15.0.2, SVG Export Plug-In . SVG Version: 6.00 Build 0)  -->
<!DOCTYPE svg PUBLIC "-//W3C//DTD SVG 1.1//EN" "http://www.w3.org/Graphics/SVG/1.1/DTD/svg11.dtd">
<svg version="1.1" xmlns="http://www.w3.org/2000/svg" xmlns:xlink="http://www.w3.org/1999/xlink" x="0px" y="0px"
	 width="141.482px" height="70.083px" viewBox="0 0 141.482 70.083" enable-background="new 0 0 141.482 70.083"
	 xml:space="preserve">
<g id="Layer_1">
	<rect fill="#56778E" width="141.482" height="70.083"/>
</g>
<g id="Layer_2">
	<g>
		<path fill="#FFFFFF" d="M20.286,16.73h22.907v5.279H25.714v10.593h14.919v4.972H25.714v10.897h17.478v5.279H20.286V16.73z"/>
		<path fill="#FFFFFF" d="M51.806,16.73h13.896c3.525,0.034,6.174,0.948,7.945,2.742c1.787,1.812,2.681,4.207,2.681,7.186
			c0.034,1.523-0.318,2.979-1.058,4.367c-0.377,0.66-0.918,1.287-1.622,1.879c-0.705,0.626-1.574,1.193-2.606,1.701v0.102
			c1.956,0.525,3.437,1.583,4.439,3.174c0.937,1.643,1.405,3.428,1.405,5.357c-0.033,3.199-1.001,5.73-2.904,7.592
			c-1.888,1.947-4.242,2.92-7.064,2.92H51.806V16.73z M57.234,21.705v10.644h7.852c1.985,0,3.445-0.536,4.381-1.608
			c0.952-0.987,1.428-2.229,1.428-3.727s-0.476-2.765-1.428-3.803c-0.936-0.969-2.396-1.472-4.381-1.506H57.234z M57.234,37.32
			v11.151h8.381c2.021-0.033,3.501-0.602,4.438-1.705c0.937-1.087,1.405-2.377,1.405-3.87c0-1.527-0.469-2.835-1.405-3.921
			c-0.937-1.069-2.416-1.621-4.438-1.655H57.234z"/>
		<path fill="#FFFFFF" d="M82.894,16.73h5.73l5.631,26.316h0.099l6.959-26.316h3.936l6.934,26.316h0.099l5.656-26.316h5.73
			l-8.952,37.02h-4.549l-6.837-26.699h-0.098L96.37,53.75h-4.524L82.894,16.73z"/>
	</g>
</g>
</svg>
